{
    "asset" : {
        "generator" : "Khronos glTF Blender I/O v0.9.36",
        "version" : "2.0"
    },
    "extensionsUsed" : [
        "KHR_lights_punctual"
    ],
    "extensionsRequired" : [
        "KHR_lights_punctual"
    ],
    "extensions" : {
        "KHR_lights_punctual" : {
            "lights" : [
                {
                    "color" : [
                        1,
                        0,
                        0
                    ],
                    "intensity" : 1,
                    "type" : "point",
                    "name" : "Point"
                },
                {
                    "color" : [
                        1,
                        1,
                        1
                    ],
                    "intensity" : 1,
                    "spot" : {
                        "innerConeAngle" : 0.3337942263919169,
                        "outerConeAngle" : 0.39269909262657166
                    },
                    "type" : "spot",
                    "name" : "Spot"
                }
            ]
        }
    },
    "scene" : 0,
    "scenes" : [
        {
            "name" : "Scene",
            "nodes" : [
                0,
                2,
                3,
                4,
                5,
                7,
                9
            ]
        }
    ],
    "nodes" : [
        {
            "mesh" : 0,
            "name" : "MSH_Fond",
            "rotation" : [
                0,
                0,
                -0.7071067690849304,
                0.7071067690849304
            ],
            "scale" : [
                9.61472225189209,
                1.6807299852371216,
                17.022680282592773
            ]
        },
        {
            "camera" : 0,
            "name" : "CAM_Camera_Orientation",
            "rotation" : [
                -0.7071067690849304,
                0,
                0,
                0.7071067690849304
            ]
        },
        {
            "children" : [
                1
            ],
            "name" : "CAM_Camera",
            "rotation" : [
                0.5,
                0.5,
                -0.4999999701976776,
                0.5000000596046448
            ],
            "scale" : [
                111.02902221679688,
                111.02902221679688,
                111.02902221679688
            ],
            "translation" : [
                77.37213134765625,
                0,
                0
            ]
        },
        {
            "mesh" : 1,
            "name" : "MSH_OxygenMeter",
            "scale" : [
                0.3204675614833832,
                3.57655668258667,
                0.3204675614833832
            ],
            "translation" : [
                0.32220613956451416,
                4.834994316101074,
                -15.150991439819336
            ]
        },
        {
            "mesh" : 2,
            "name" : "MSH_Hublot",
            "rotation" : [
                0,
                0,
                -0.7071067690849304,
                0.7071067690849304
            ],
            "scale" : [
                3.0576438903808594,
                0.16275806725025177,
                3.0576438903808594
            ],
            "translation" : [
                0,
                4.880098819732666,
                -9.658915519714355
            ]
        },
        {
            "mesh" : 3,
            "name" : "MSH_Alarme",
            "scale" : [
                0.3931874930858612,
                0.629381537437439,
                1.3294274806976318
            ],
            "translation" : [
                0.32220613956451416,
                0.06490278244018555,
                0.00658416748046875
            ]
        },
        {
            "extensions" : {
                "KHR_lights_punctual" : {
                    "light" : 0
                }
            },
            "name" : "LGT_Alarme_Orientation",
            "rotation" : [
                -0.7071067690849304,
                0,
                0,
                0.7071067690849304
            ]
        },
        {
            "children" : [
                6
            ],
            "name" : "LGT_Alarme",
            "translation" : [
                1.4587225914001465,
                -0.0008578300476074219,
                0.10044455528259277
            ]
        },
        {
            "extensions" : {
                "KHR_lights_punctual" : {
                    "light" : 1
                }
            },
            "name" : "LGT_Player_Orientation",
            "rotation" : [
                -0.7071067690849304,
                0,
                0,
                0.7071067690849304
            ]
        },
        {
            "children" : [
                8
            ],
            "name" : "LGT_Player",
            "rotation" : [
                0,
                0,
                -0.24196627736091614,
                0.970284640789032
            ],
            "translation" : [
                6.529576778411865,
                15.248319625854492,
                -9.550420761108398
            ]
        }
    ],
    "cameras" : [
        {
            "name" : "Camera.001",
            "perspective" : {
                "yfov" : 0.39959652046304894,
                "zfar" : 1000,
                "znear" : 0.10000000149011612
            },
            "type" : "perspective"
        }
    ],
    "meshes" : [
        {
            "name" : "Plane",
            "primitives" : [
                {
                    "attributes" : {
                        "POSITION" : 0,
                        "NORMAL" : 1,
                        "TEXCOORD_0" : 2
                    },
                    "indices" : 3
                }
            ]
        },
        {
            "name" : "Cube.002",
            "primitives" : [
                {
                    "attributes" : {
                        "POSITION" : 4,
                        "NORMAL" : 5,
                        "TEXCOORD_0" : 6
                    },
                    "indices" : 7
                }
            ]
        },
        {
            "name" : "Cylinder",
            "primitives" : [
                {
                    "attributes" : {
                        "POSITION" : 8,
                        "NORMAL" : 9,
                        "TEXCOORD_0" : 10
                    },
                    "indices" : 11
                }
            ]
        },
        {
            "name" : "Cube.001",
            "primitives" : [
                {
                    "attributes" : {
                        "POSITION" : 12,
                        "NORMAL" : 13,
                        "TEXCOORD_0" : 14
                    },
                    "indices" : 7
                }
            ]
        }
    ],
    "accessors" : [
        {
            "bufferView" : 0,
            "componentType" : 5126,
            "count" : 4,
            "max" : [
                1,
                0,
                1
            ],
            "min" : [
                -1,
                0,
                -1
            ],
            "type" : "VEC3"
        },
        {
            "bufferView" : 1,
            "componentType" : 5126,
            "count" : 4,
            "type" : "VEC3"
        },
        {
            "bufferView" : 2,
            "componentType" : 5126,
            "count" : 4,
            "type" : "VEC2"
        },
        {
            "bufferView" : 3,
            "componentType" : 5123,
            "count" : 6,
            "type" : "SCALAR"
        },
        {
            "bufferView" : 4,
            "componentType" : 5126,
            "count" : 24,
            "max" : [
                1,
                1,
                1
            ],
            "min" : [
                -1,
                -1,
                -1
            ],
            "type" : "VEC3"
        },
        {
            "bufferView" : 5,
            "componentType" : 5126,
            "count" : 24,
            "type" : "VEC3"
        },
        {
            "bufferView" : 6,
            "componentType" : 5126,
            "count" : 24,
            "type" : "VEC2"
        },
        {
            "bufferView" : 7,
            "componentType" : 5123,
            "count" : 36,
            "type" : "SCALAR"
        },
        {
            "bufferView" : 8,
            "componentType" : 5126,
            "count" : 512,
            "max" : [
                1.1532870531082153,
                3.474348545074463,
                1.1532870531082153
            ],
            "min" : [
                -1.1532870531082153,
                -0.23797762393951416,
                -1.1532870531082153
            ],
            "type" : "VEC3"
        },
        {
            "bufferView" : 9,
            "componentType" : 5126,
            "count" : 512,
            "type" : "VEC3"
        },
        {
            "bufferView" : 10,
            "componentType" : 5126,
            "count" : 512,
            "type" : "VEC2"
        },
        {
            "bufferView" : 11,
            "componentType" : 5123,
            "count" : 768,
            "type" : "SCALAR"
        },
        {
            "bufferView" : 12,
            "componentType" : 5126,
            "count" : 24,
            "max" : [
                -0.043612122535705566,
                1,
                1
            ],
            "min" : [
                -1,
                -1,
                -1
            ],
            "type" : "VEC3"
        },
        {
            "bufferView" : 13,
            "componentType" : 5126,
            "count" : 24,
            "type" : "VEC3"
        },
        {
            "bufferView" : 14,
            "componentType" : 5126,
            "count" : 24,
            "type" : "VEC2"
        }
    ],
    "bufferViews" : [
        {
            "buffer" : 0,
            "byteLength" : 48,
            "byteOffset" : 0
        },
        {
            "buffer" : 0,
            "byteLength" : 48,
            "byteOffset" : 48
        },
        {
            "buffer" : 0,
            "byteLength" : 32,
            "byteOffset" : 96
        },
        {
            "buffer" : 0,
            "byteLength" : 12,
            "byteOffset" : 128
        },
        {
            "buffer" : 0,
            "byteLength" : 288,
            "byteOffset" : 140
        },
        {
            "buffer" : 0,
            "byteLength" : 288,
            "byteOffset" : 428
        },
        {
            "buffer" : 0,
            "byteLength" : 192,
            "byteOffset" : 716
        },
        {
            "buffer" : 0,
            "byteLength" : 72,
            "byteOffset" : 908
        },
        {
            "buffer" : 0,
            "byteLength" : 6144,
            "byteOffset" : 980
        },
        {
            "buffer" : 0,
            "byteLength" : 6144,
            "byteOffset" : 7124
        },
        {
            "buffer" : 0,
            "byteLength" : 4096,
            "byteOffset" : 13268
        },
        {
            "buffer" : 0,
            "byteLength" : 1536,
            "byteOffset" : 17364
        },
        {
            "buffer" : 0,
            "byteLength" : 288,
            "byteOffset" : 18900
        },
        {
            "buffer" : 0,
            "byteLength" : 288,
            "byteOffset" : 19188
        },
        {
            "buffer" : 0,
            "byteLength" : 192,
            "byteOffset" : 19476
        }
    ],
    "buffers" : [
        {
            "byteLength" : 19668,
            "uri" : "data:application/octet-stream;base64,"
        }
    ]
}
